HIERARCHY
ROOT Hips
{
 OFFSET 0.000000 0.000000 0.000000
 CHANNELS 6 Xposition Yposition Zposition Yrotation Xrotation Zrotation
 JOINT Chest
 {
  OFFSET 0.000000 9.581000 -0.001100
  CHANNELS 3 Yrotation Xrotation Zrotation
  JOINT Chest2
  {
   OFFSET 0.000000 9.561100 0.002200
   CHANNELS 3 Yrotation Xrotation Zrotation
   JOINT Chest3
   {
    OFFSET 0.000000 9.521100 0.000000
    CHANNELS 3 Yrotation Xrotation Zrotation
    JOINT Chest4
    {
     OFFSET 0.000000 9.511400 0.000000
     CHANNELS 3 Yrotation Xrotation Zrotation
     JOINT Neck
     {
      OFFSET 0.000000 14.375100 0.000000
      CHANNELS 3 Yrotation Xrotation Zrotation
      JOINT Head
      {
       OFFSET 0.000000 8.901200 0.004600
       CHANNELS 3 Yrotation Xrotation Zrotation
       End Site
       {
        OFFSET 0.000000 16.962200 0.002400
       }
      }
     }
     JOINT RightCollar
     {
      OFFSET -2.920100 9.518800 0.000000
      CHANNELS 3 Yrotation Xrotation Zrotation
      JOINT RightShoulder
      {
       OFFSET -13.664500 0.000000 0.000000
       CHANNELS 3 Yrotation Xrotation Zrotation
       JOINT RightElbow
       {
        OFFSET 0.000000 -29.999200 0.000000
        CHANNELS 3 Yrotation Xrotation Zrotation
        JOINT RightWrist
        {
         OFFSET 0.000000 -24.253600 0.000000
         CHANNELS 3 Yrotation Xrotation Zrotation
         End Site
         {
          OFFSET 0.000000 -17.918900 0.000000
         }
        }
       }
      }
     }
     JOINT LeftCollar
     {
      OFFSET 2.920100 9.518800 0.000000
      CHANNELS 3 Yrotation Xrotation Zrotation
      JOINT LeftShoulder
      {
       OFFSET 13.664500 0.000000 0.000000
       CHANNELS 3 Yrotation Xrotation Zrotation
       JOINT LeftElbow
       {
        OFFSET 0.000000 -29.999200 0.000000
        CHANNELS 3 Yrotation Xrotation Zrotation
        JOINT LeftWrist
        {
         OFFSET 0.000000 -24.253600 0.000000
         CHANNELS 3 Yrotation Xrotation Zrotation
         End Site
         {
          OFFSET 0.000000 -17.918900 0.000000
         }
        }
       }
      }
     }
    }
   }
  }
 }
 JOINT RightHip
 {
  OFFSET -7.797300 0.005300 0.000500
  CHANNELS 3 Yrotation Xrotation Zrotation
  JOINT RightKnee
  {
   OFFSET 0.000000 -40.663400 -0.000500
   CHANNELS 3 Yrotation Xrotation Zrotation
   JOINT RightAnkle
   {
    OFFSET 0.000000 -39.523700 -0.000900
    CHANNELS 3 Yrotation Xrotation Zrotation
    JOINT RightToe
    {
     OFFSET 0.000000 -6.418000 14.485300
     CHANNELS 3 Yrotation Xrotation Zrotation
     End Site
     {
      OFFSET 0.000000 -1.465200 6.326400
     }
    }
   }
  }
 }
 JOINT LeftHip
 {
  OFFSET 7.797300 0.005300 0.000500
  CHANNELS 3 Yrotation Xrotation Zrotation
  JOINT LeftKnee
  {
   OFFSET 0.000000 -40.663400 -0.000500
   CHANNELS 3 Yrotation Xrotation Zrotation
   JOINT LeftAnkle
   {
    OFFSET 0.000000 -39.523700 -0.000900
    CHANNELS 3 Yrotation Xrotation Zrotation
    JOINT LeftToe
    {
     OFFSET 0.000000 -6.418000 14.485300
     CHANNELS 3 Yrotation Xrotation Zrotation
     End Site
     {
      OFFSET 0.000000 -1.465200 6.326400
     }
    }
   }
  }
 }
}
MOTION
Frames: 8
Frame Time: 0.008333
-14.683071 126.916605 22.984273 -169.989082 -49.089561 -2.205542 -3.292660 25.520898 0.511280 -0.562503 4.169070 0.184336 -0.840197 6.622286 0.272574 -2.690267 21.041459 0.535259 -5.307372 21.324538 -4.718267 -4.547326 -2.843824 -3.877410 -0.086334 1.550409 -0.410396 9.022544 -7.952337 -8.553711 -60.397349 -58.518859 117.350713 10.052632 22.120710 16.250415 -8.883099 -0.238865 -1.537823 -5.628480 -12.999282 9.639003 49.854828 -47.195165 -102.356108 4.696131 -10.202213 -10.887961 -4.254652 -23.445351 -4.359118 -3.499204 77.789628 -2.538133 10.390537 -10.313028 1.918331 -0.001191 -0.006487 -0.000528 6.821393 5.872291 1.914518 128.543900 65.490617 148.038854 5.942018 12.785997 2.566339 -0.006203 -0.002573 -0.002748
-14.683281 126.917095 22.982963 -169.979473 -49.087496 -2.209147 -3.283918 25.513665 0.513007 -0.554777 4.161489 0.185443 -0.856314 6.630066 0.274070 -2.663196 21.018638 0.533345 -5.207113 21.330599 -4.655480 -4.596145 -2.811538 -3.856083 -0.112154 1.571908 -0.396838 9.062017 -8.000286 -8.576309 -60.392418 -58.498512 117.317178 10.079216 22.125651 16.272502 -8.881166 -0.235258 -1.527893 -5.609639 -13.001745 9.631791 49.822285 -47.163166 -102.320558 4.742516 -10.310122 -10.728516 -4.230146 -23.441696 -4.369188 -3.601833 77.830538 -2.619998 10.393638 -10.442067 1.937792 -0.002200 -0.005656 -0.000975 6.824380 5.872775 1.923582 128.543025 65.498592 148.043196 5.959103 12.791610 2.539846 -0.004251 -0.004616 -0.001883
-14.682467 126.916946 22.981937 -169.962945 -49.077763 -2.221632 -3.289355 25.502832 0.515246 -0.516275 4.140052 0.182929 -0.873913 6.635693 0.275940 -2.669150 21.021690 0.538556 -5.153898 21.332075 -4.621790 -4.634211 -2.793303 -3.851035 -0.113281 1.553032 -0.397932 9.061306 -7.982596 -8.570442 -60.438796 -58.559540 117.389490 9.990703 22.123939 16.223801 -8.867185 -0.248443 -1.521845 -5.535585 -13.034591 9.611850 49.698661 -47.122517 -102.270269 4.793175 -10.441069 -10.544077 -4.207416 -23.442470 -4.366204 -3.721124 77.864507 -2.719572 10.387701 -10.567422 1.958995 -0.001487 -0.003596 -0.000659 6.824202 5.871938 1.950288 128.547599 65.520251 148.056313 5.954118 12.792757 2.527901 0.002773 -0.005867 0.001229
-14.682603 126.916294 22.981360 -169.954507 -49.062747 -2.219961 -3.276246 25.481573 0.516171 -0.518261 4.133845 0.183740 -0.846017 6.603977 0.273793 -2.695799 21.049537 0.544760 -5.099697 21.333628 -4.586708 -4.519676 -2.772056 -3.790519 -0.100530 1.509687 -0.406492 9.046244 -7.941209 -8.553909 -60.454478 -58.592193 117.409958 9.985833 22.113179 16.218211 -8.851266 -0.263312 -1.518110 -5.528801 -13.027341 9.602611 49.659696 -47.103075 -102.243869 4.844342 -10.579245 -10.366299 -4.203306 -23.455083 -4.364213 -3.782317 77.902530 -2.784685 10.386184 -10.690528 1.978791 -0.000806 -0.002505 -0.000357 6.818839 5.862011 1.948807 128.523438 65.517939 148.032463 5.947264 12.796589 2.515277 0.001844 -0.008729 0.000817
-14.682719 126.915374 22.980966 -169.949932 -49.044385 -2.213772 -3.267169 25.456182 0.514997 -0.521161 4.132263 0.182549 -0.843583 6.596328 0.273199 -2.682255 21.028033 0.544803 -5.050988 21.356273 -4.547882 -4.448542 -2.753213 -3.745173 -0.118199 1.526676 -0.400217 9.075240 -7.955174 -8.566609 -60.458595 -58.608886 117.400104 9.984051 22.100159 16.208523 -8.809185 -0.292359 -1.516480 -5.582696 -12.966516 9.598088 49.668465 -47.076904 -102.225080 4.880460 -10.702435 -10.217434 -4.201197 -23.472041 -4.365712 -3.822245 77.933868 -2.829743 10.396094 -10.805161 1.998140 -0.000638 -0.002003 -0.000283 6.815185 5.848212 1.945978 128.515896 65.516891 148.022836 5.975572 12.819747 2.419422 -0.003015 -0.002317 -0.001336
-14.682411 126.916146 22.979031 -169.952554 -49.038655 -2.205324 -3.253132 25.447213 0.515039 -0.531098 4.132634 0.182244 -0.842772 6.593812 0.272960 -2.642220 20.976837 0.532925 -5.047012 21.406474 -4.508105 -4.423295 -2.744805 -3.727544 -0.134449 1.540022 -0.384624 9.093758 -7.949855 -8.578140 -60.468107 -58.616013 117.395067 9.989685 22.086820 16.198676 -8.813734 -0.269774 -1.502482 -5.577853 -12.965777 9.588870 49.678175 -47.035786 -102.207432 4.914388 -10.775152 -10.096745 -4.198263 -23.474740 -4.360092 -3.874672 77.962236 -2.889828 10.402423 -10.919466 2.017936 -0.000357 -0.001950 -0.000158 6.817541 5.867064 1.962784 128.510612 65.538331 148.006304 5.988808 12.817086 2.383059 -0.006485 0.008243 -0.002873
-14.682704 126.916442 22.977601 -169.939823 -49.028561 -2.204115 -3.232484 25.429614 0.518041 -0.541373 4.128624 0.181780 -0.840541 6.584510 0.271111 -2.656491 20.989219 0.536247 -5.013705 21.406381 -4.489737 -4.296995 -2.755184 -3.681098 -0.118692 1.502720 -0.395346 9.120709 -7.938414 -8.595494 -60.483441 -58.616331 117.398726 9.992145 22.075289 16.181352 -8.792301 -0.289102 -1.504333 -5.562639 -12.980834 9.578059 49.648618 -47.015881 -102.184786 4.940375 -10.861672 -9.973734 -4.204540 -23.492675 -4.355405 -3.919020 78.005321 -2.943955 10.395648 -11.001755 2.027028 -0.000458 0.002295 -0.000203 6.805084 5.872319 1.961102 128.511556 65.548923 147.999257 5.988687 12.798741 2.399859 -0.006123 0.003751 -0.002713
-14.682991 126.916829 22.976123 -169.922665 -49.019125 -2.206597 -3.231347 25.419203 0.512416 -0.531231 4.118131 0.180157 -0.846383 6.579564 0.271683 -2.650669 20.979331 0.532488 -4.949788 21.414651 -4.444072 -4.201315 -2.768361 -3.637188 -0.096916 1.436675 -0.404969 9.129327 -7.882243 -8.593562 -60.501733 -58.591701 117.382330 10.012878 22.075730 16.176008 -8.805452 -0.269793 -1.491635 -5.503630 -13.053818 9.549258 49.563021 -46.994979 -102.122909 4.948520 -10.933020 -9.873976 -4.212635 -23.511463 -4.357408 -3.962686 78.056506 -2.988060 10.390007 -11.089378 2.028759 -0.000890 0.006215 -0.000394 6.787911 5.878167 1.955164 128.514081 65.550176 147.996495 5.972642 12.758963 2.447328 -0.002467 -0.003256 -0.001093
